<svg xmlns="http://www.w3.org/2000/svg" viewBox="0 0 179.82 179.82"><defs><style>.cls-1{fill:#0280ff;}.cls-2{fill:#fff;fill-rule:evenodd;}</style></defs><g id="Layer_2" data-name="Layer 2"><g id="Nav_Icons" data-name="Nav Icons"><g id="Alerts_and_Notifications" data-name="Alerts and Notifications"><path class="cls-1" d="M89.91,179.82a89.91,89.91,0,1,1,89.91-89.91A90,90,0,0,1,89.91,179.82Zm0-174.44a84.53,84.53,0,1,0,84.53,84.53A84.63,84.63,0,0,0,89.91,5.38Z"/><path id="bell2_white" class="cls-2" d="M98.78,135.44a13.46,13.46,0,0,1-8.68,3,13.13,13.13,0,0,1-8.67-3.11,11.23,11.23,0,0,1-4.21-7.58H103A11.7,11.7,0,0,1,98.78,135.44Zm22.06-54.26c0,3.43.13,6.59.37,9.45s.49,5.28.74,7.24a20.13,20.13,0,0,0,1.72,5.89,33.34,33.34,0,0,1,1.72,4.3,10.23,10.23,0,0,0,2.57,3.68q2.22,2.34,2.46,2.7a32.13,32.13,0,0,0,3.31,2.83l.68.54a1.21,1.21,0,0,1-.76,2.16H46.17a1.21,1.21,0,0,1-.73-2.18l0,0a29,29,0,0,0,2.57-2.09l2.21-2.21a15.59,15.59,0,0,0,2.21-2.58c.41-.65,1-1.59,1.84-2.82A13.45,13.45,0,0,0,56,104.62q.49-1.59,1.23-4.17a28.42,28.42,0,0,0,1-5.28q.25-2.7.49-6.26T59,81.18Q59,51.46,84,47.3v-.49A5,5,0,0,1,85.74,43a6.28,6.28,0,0,1,8.35,0,5,5,0,0,1,1.71,3.81v.49Q120.85,51,120.84,81.18Z"/></g></g></g></svg>