<svg xmlns="http://www.w3.org/2000/svg" viewBox="0 0 180 180"><defs><style>.cls-1{fill:#565656;fill-rule:evenodd;}.cls-2{fill:none;}</style></defs><g id="Layer_2" data-name="Layer 2"><g id="Nav_Icons" data-name="Nav Icons"><g id="Alerts_and_Notifications" data-name="Alerts and Notifications"><path id="bell2_white" class="cls-1" d="M98.87,135.53a13.45,13.45,0,0,1-8.68,3,13.13,13.13,0,0,1-8.67-3.11,11.2,11.2,0,0,1-4.21-7.57h25.77A11.72,11.72,0,0,1,98.87,135.53Zm22.06-54.27c0,3.44.13,6.59.37,9.45S121.77,96,122,98c.68,5,4.54,12.31,6,13.87s2.3,2.45,2.46,2.7a34.41,34.41,0,0,0,3.31,2.82l.68.54a1.21,1.21,0,0,1-.76,2.16H46.26a1.21,1.21,0,0,1-.73-2.18l0,0a29,29,0,0,0,2.57-2.09l2.21-2.2A21,21,0,0,0,52.56,111c1.19-1.64,5.5-10.75,5.77-15.71.1-1.81.33-3.89.49-6.27s.25-4.95.25-7.73q0-29.7,25-33.88v-.49a5,5,0,0,1,1.72-3.8,6.25,6.25,0,0,1,8.35,0,5,5,0,0,1,1.71,3.8v.49Q120.94,51.07,120.93,81.26Z"/><path class="cls-2" d="M90,180a90,90,0,1,1,90-90A90.1,90.1,0,0,1,90,180ZM90,5.39A84.61,84.61,0,1,0,174.61,90,84.71,84.71,0,0,0,90,5.39Z"/></g></g></g></svg>