<?xml version="1.0" encoding="UTF-8"?>
<svg width="16px" height="16px" viewBox="0 0 16 16" version="1.1" xmlns="http://www.w3.org/2000/svg" xmlns:xlink="http://www.w3.org/1999/xlink">
    <!-- Generator: Sketch 55.2 (78181) - https://sketchapp.com -->
    <title>drawable-anydpi/ic_sync</title>
    <desc>Created with Sketch.</desc>
    <g id="ic_sync" stroke="none" stroke-width="1" fill="none" fill-rule="evenodd">
        <path d="M11.1539842,12.0033103 C12.4750316,10.9630262 13.150841,9.36667524 13.0140514,7.71830431 C12.9278282,6.67927993 12.5216833,5.68270134 11.8251747,4.84628673 C9.98403326,2.63531951 6.69845093,2.25494197 4.48662119,3.99668972 C4.33758316,4.11405257 4.16712016,4.2778396 3.97523221,4.4880508 C3.64469314,4.85020808 3.10033037,4.91926166 2.68981441,4.6511374 L1.87118774,4.11645985 C1.40883876,3.81442678 1.27882574,3.19478346 1.58082053,2.73240947 C1.60776638,2.69115359 1.6377249,2.6519459 1.67045123,2.61510686 C2.01934875,2.22236345 2.32500932,1.92266649 2.58743294,1.71601598 C6.05933537,-1.01800018 11.216704,-0.420922713 14.1067382,3.04962583 C15.1976324,4.35964537 15.8374832,5.92967995 15.9728635,7.56106824 C16.1871475,10.1432789 15.1248271,12.6526199 13.0531725,14.283984 C9.64050927,16.9713511 4.59940564,16.4403282 1.68376124,13.1255107 L0.336596391,13.9974474 C0.237017244,14.0618989 0.102563595,14.0356467 0.036285762,13.9388117 C0.0124375832,13.9039683 -0.000194247175,13.8630054 -8.53771969e-06,13.8211504 L0.0261870345,8.24387685 C0.026733154,8.12755514 0.124145398,8.03368827 0.243763372,8.03421934 C0.272467026,8.03434678 0.300858337,8.04002118 0.327286981,8.05091271 L5.57610029,10.2140051 C5.68623751,10.2593939 5.73768387,10.3830122 5.69100893,10.4901144 C5.67447662,10.5280502 5.64686552,10.5604375 5.61159448,10.5832663 L4.15562596,11.525625 C6.04026082,13.4021564 9.07255897,13.6423685 11.1539842,12.0033103 Z" id="Path" fill="#0080FF" fill-rule="nonzero"></path>
    </g>
</svg>