<?xml version="1.0" encoding="UTF-8"?>
<svg width="16px" height="16px" viewBox="0 0 16 16" version="1.1" xmlns="http://www.w3.org/2000/svg" xmlns:xlink="http://www.w3.org/1999/xlink">
    <!-- Generator: Sketch 55.2 (78181) - https://sketchapp.com -->
    <title>drawable-anydpi/ic_settings</title>
    <desc>Created with Sketch.</desc>
    <g id="ic_settings" stroke="none" stroke-width="1" fill="none" fill-rule="evenodd">
        <path d="M6.76747476,16 C5.89900683,15.8641643 5.07667407,15.5870488 4.32415294,15.1926009 L4.37286587,14.5169603 C4.41432964,13.9418645 3.98700895,13.4416596 3.41841841,13.3997214 C3.25994567,13.3880327 3.10094425,13.4135042 2.95379885,13.4741518 L2.34339323,13.7257373 C1.73484479,13.1102799 1.22387031,12.3961252 0.835953228,11.6090482 L1.25414204,11.1080098 C1.62189607,10.6673981 1.56687365,10.0086773 1.13124603,9.63671578 C1.00983159,9.53304581 0.866394338,9.45912471 0.712106676,9.42071022 L0.0969816687,9.26755663 C0.0331416861,8.85581851 0,8.43377983 0,8.00391193 C0,7.54094565 0.0384417628,7.08706065 0.112272929,6.64534421 L0.712106676,6.49599783 C1.26568143,6.35816899 1.60397397,5.79254131 1.46770421,5.23263303 C1.42972426,5.07658014 1.35663933,4.9315018 1.25414204,4.80869824 L0.864363739,4.34169893 C1.26252842,3.54961641 1.78582113,2.83269528 2.40791465,2.21756395 L2.95379885,2.44255621 C3.48174759,2.66015617 4.08413883,2.40367212 4.29927736,1.86968305 C4.35923895,1.72085415 4.3844223,1.56003357 4.37286587,1.39974772 L4.33048331,0.811908427 C5.09604155,0.411504462 5.93370759,0.132476862 6.81859182,0 L7.12296835,0.495961888 C7.4236326,0.985874849 8.06002957,1.13650262 8.54440077,0.83239844 C8.67940061,0.747641099 8.79323306,0.632506276 8.87703165,0.495961888 L9.18140818,0 C10.0662924,0.132476862 10.9039585,0.411504462 11.6695167,0.811908427 L11.6271341,1.39974772 C11.5856704,1.97484359 12.012991,2.4750485 12.5815816,2.51698666 C12.7400543,2.52867531 12.8990558,2.50320383 13.0462011,2.44255621 L13.5920853,2.21756395 C14.2141789,2.83269528 14.7374716,3.54961641 15.1356363,4.34169893 L14.745858,4.80869824 C14.3781039,5.24930994 14.4331263,5.90803071 14.868754,6.27999226 C14.9901684,6.38366224 15.1336057,6.45758334 15.2878933,6.49599783 L15.8877271,6.64534421 C15.9615582,7.08706065 16,7.54094565 16,8.00391193 C16,8.43377983 15.9668583,8.85581851 15.9030183,9.26755663 L15.2878933,9.42071022 C14.7343186,9.55853906 14.396026,10.1241667 14.5322958,10.684075 C14.5702757,10.8401279 14.6433607,10.9852062 14.745858,11.1080098 L15.1640468,11.6090482 C14.7761297,12.3961252 14.2651552,13.1102799 13.6566068,13.7257373 L13.0462011,13.4741518 C12.5182524,13.2565519 11.9158612,13.5130359 11.7007226,14.047025 C11.6407611,14.1958539 11.6155777,14.3566745 11.6271341,14.5169603 L11.6758471,15.1926009 C10.9233259,15.5870488 10.1009932,15.8641643 9.23252524,16 L8.87703165,15.4207462 C8.5763674,14.9308332 7.93997043,14.7802054 7.45559923,15.0843096 C7.32059939,15.1690669 7.20676694,15.2842018 7.12296835,15.4207462 L6.76747476,16 Z M8,13 C10.7614237,13 13,10.7614237 13,8 C13,5.23857625 10.7614237,3 8,3 C5.23857625,3 3,5.23857625 3,8 C3,10.7614237 5.23857625,13 8,13 Z" id="Shape" fill="#0080FF"></path>
    </g>
</svg>