<?xml version="1.0" encoding="UTF-8"?>
<svg width="16px" height="16px" viewBox="0 0 16 16" version="1.1" xmlns="http://www.w3.org/2000/svg" xmlns:xlink="http://www.w3.org/1999/xlink">
    <!-- Generator: Sketch 55.2 (78181) - https://sketchapp.com -->
    <title>drawable-anydpi/ic_trash</title>
    <desc>Created with Sketch.</desc>
    <g id="ic_trash" stroke="none" stroke-width="1" fill="none" fill-rule="evenodd">
        <path d="M11,1 L13.9271523,1.28 L13.9271523,2 L3,2 L3,1.28 L6,1 L6,0.5 C6,0.223857625 6.22385763,-4.52463729e-14 6.5,-4.52970994e-14 L10.5,-4.52970994e-14 C10.7761424,-4.53478259e-14 11,0.223857625 11,0.5 L11,1 Z M3.5,3 L13.4271523,3 C13.7032947,3 13.9271523,3.22385763 13.9271523,3.5 L13.9271523,15 C13.9271523,15.5522847 13.4794371,16 12.9271523,16 L4,16 C3.44771525,16 3,15.5522847 3,15 L3,3.5 C3,3.22385763 3.22385763,3 3.5,3 Z M3.91059603,5.5 L3.91059603,13 C3.91059603,13.5522847 4.35831128,14 4.91059603,14 L12.0165563,14 C12.568841,14 13.0165563,13.5522847 13.0165563,13 L13.0165563,5.5 C13.0165563,5.22385763 12.7926987,5 12.5165563,5 L4.41059603,5 C4.13445365,5 3.91059603,5.22385763 3.91059603,5.5 Z" id="Shape" fill="#0080FF"></path>
    </g>
</svg>