<svg xmlns="http://www.w3.org/2000/svg" viewBox="0 0 24 24"><defs><style>.cls-1{fill:#1d1d1d;}</style></defs><g id="Layer_16" data-name="Layer 16"><path class="cls-1" d="M23,20.46H1.07a1,1,0,0,1-1-1v-.84A11.94,11.94,0,0,1,4,9.86l.67-.57L.49,4.14A.88.88,0,0,1,.7,2.85a1,1,0,0,1,1.35,0L6.29,8.18a12.06,12.06,0,0,1,11.43,0L22.05,3a1,1,0,0,1,1.54,1.28l-4.87,5.82a.91.91,0,0,1-1.32.21c-4.95-3.51-10.08-1-12.34,1.21a10.24,10.24,0,0,0-3,7H22a7.63,7.63,0,0,0-2.85-6.25,1,1,0,0,1,1.35-1.48A9.71,9.71,0,0,1,24,18.62v.84A1,1,0,0,1,23,20.46Z"/><ellipse class="cls-1" cx="6.8" cy="14.63" rx="1.49" ry="1.48"/><ellipse class="cls-1" cx="17.22" cy="14.63" rx="1.49" ry="1.48"/></g></svg>