<svg xmlns="http://www.w3.org/2000/svg" viewBox="0 0 24 24"><defs><style>.cls-1{fill:#1d1d1d;}</style></defs><g id="Layer_16" data-name="Layer 16"><path class="cls-1" d="M12,0A12,12,0,1,0,24,12,12,12,0,0,0,12,0Zm0,21.94A9.94,9.94,0,1,1,21.93,12,9.94,9.94,0,0,1,12,21.94Z"/><path class="cls-1" d="M17,7.08a1,1,0,0,0-1.42,0L12,10.61,8.58,7.15a1.06,1.06,0,0,0-1.5-.09,1.06,1.06,0,0,0,.09,1.5L10.63,12,7.17,15.48A1.06,1.06,0,0,0,7.08,17a1.06,1.06,0,0,0,1.5-.08L12,13.44,15.56,17A1,1,0,0,0,17,17a1,1,0,0,0,0-1.41L13.46,12,17,8.5A1,1,0,0,0,17,7.08Z"/></g></svg>