<svg xmlns="http://www.w3.org/2000/svg" viewBox="0 0 24 24"><defs><style>.cls-1{fill:#1d1d1d;}</style></defs><g id="Layer_16" data-name="Layer 16"><path class="cls-1" d="M23,9.48V5.05a3,3,0,0,0-3-3H18V1a1,1,0,1,0-2,0v1H8V1A1,1,0,0,0,6,1v1H4a3,3,0,0,0-3,3V9.48ZM3,5.05a1,1,0,0,1,1-1H6V5A1,1,0,0,0,8,5v-1h8V5a1,1,0,1,0,2,0v-1h2a1,1,0,0,1,1,1V7.53H3Z"/><path class="cls-1" d="M21,11.9v9.15a1,1,0,0,1-1,1H4a1,1,0,0,1-1-1V11.9H1v9.15a3,3,0,0,0,3,3H20a3,3,0,0,0,3-3V11.9Z"/><rect class="cls-1" x="6.1" y="11.98" width="3" height="3" rx="1"/><rect class="cls-1" x="6.1" y="16.98" width="3" height="3" rx="1"/><rect class="cls-1" x="10.51" y="16.93" width="3" height="3" rx="1"/></g></svg>