<svg xmlns="http://www.w3.org/2000/svg" viewBox="0 0 24 24"><defs><style>.cls-1{fill:#1d1d1d;}</style></defs><g id="Layer_16" data-name="Layer 16"><path class="cls-1" d="M20.54,6.5a1,1,0,0,0-1,1L19,21.2a.93.93,0,0,1-1,.8H6a.93.93,0,0,1-1-.84L4.5,7.46a1,1,0,0,0-1-1,1,1,0,0,0-1,1L3,21.2A2.91,2.91,0,0,0,6,24H18a2.91,2.91,0,0,0,3-2.76l.5-13.7A1,1,0,0,0,20.54,6.5Z"/><path class="cls-1" d="M21.6,3H16V2A1.48,1.48,0,0,0,14.5.52h-5A1.48,1.48,0,0,0,8,2V3H2.4a.9.9,0,0,0-.9.9v.2a.9.9,0,0,0,.9.9H21.6a.9.9,0,0,0,.9-.9V3.9A.9.9,0,0,0,21.6,3ZM10,2.48h4v.38H10Z"/></g></svg>