<svg xmlns="http://www.w3.org/2000/svg" viewBox="0 0 24 24"><defs><style>.cls-1{fill:#1d1d1d;}</style></defs><g id="Layer_16" data-name="Layer 16"><path class="cls-1" d="M16.63,21.85a.16.16,0,0,1-.06.14h-14s-.07,0-.07-.14V2.19A.16.16,0,0,1,2.57,2h8.3V6.43A1.61,1.61,0,0,0,12.52,8h4.11V9.31H18.5V6L12.68.15H2.57a2,2,0,0,0-1.94,2V21.85a2,2,0,0,0,1.94,2h14a2,2,0,0,0,1.93-2V17.59H16.63ZM12.78,2.92l3.11,3.13H12.78Z"/><path class="cls-1" d="M22.34,12.85,20,10.43a.9.9,0,0,0-1.27,0,.94.94,0,0,0,0,1.3l.82.82H11.82a.91.91,0,0,0,0,1.82h7.73l-.81.82a.92.92,0,0,0,0,1.29.89.89,0,0,0,1.28,0l2.32-2.35A.92.92,0,0,0,22.34,12.85Z"/></g></svg>