<svg xmlns="http://www.w3.org/2000/svg" viewBox="0 0 24 24"><defs><style>.cls-1{fill:#1d1d1d;}</style></defs><g id="Layer_16" data-name="Layer 16"><path class="cls-1" d="M12,0A12,12,0,1,0,24,12,12,12,0,0,0,12,0Zm0,21.94A9.94,9.94,0,1,1,21.93,12,9.94,9.94,0,0,1,12,21.94Z"/><circle class="cls-1" cx="16.49" cy="8.51" r="1.5"/><circle class="cls-1" cx="7.41" cy="8.51" r="1.5"/><path class="cls-1" d="M15.51,12.41a5,5,0,0,1-7.09,0A1,1,0,0,0,7,13.83a7,7,0,0,0,9.92,0,1,1,0,0,0,0-1.42A1,1,0,0,0,15.51,12.41Z"/></g></svg>