<svg xmlns="http://www.w3.org/2000/svg" viewBox="0 0 24 24"><defs><style>.cls-1{fill:#1d1d1d;}</style></defs><g id="Layer_16" data-name="Layer 16"><path class="cls-1" d="M21.14,16.55a.91.91,0,0,0-.53-.49,3.76,3.76,0,0,1-.7-.33A3.2,3.2,0,0,1,18.33,13a3.26,3.26,0,0,1,1.84-2.87,1,1,0,0,0,.49-.6.93.93,0,0,0-.13-.76,5.72,5.72,0,0,0-2.8-2.25,6.16,6.16,0,0,0-3.63.22A9.57,9.57,0,0,1,12,7.12a6.55,6.55,0,0,1-1.82-.39,5.18,5.18,0,0,0-3-.3c-3,.94-4.67,3.51-4.67,7.25s2.11,7.69,5,9.29a2.83,2.83,0,0,0,1.41.35A6.73,6.73,0,0,0,10.7,23a6.3,6.3,0,0,1,1.51-.28,5,5,0,0,1,1.33.26,3.7,3.7,0,0,0,2.89,0,10.44,10.44,0,0,0,4.75-5.72A.94.94,0,0,0,21.14,16.55ZM15.57,21.3c-.36.19-.78.08-1.5-.13a6.42,6.42,0,0,0-1.86-.34,7.73,7.73,0,0,0-2,.35c-.87.23-1.42.36-1.82.14-2.3-1.27-4-4.56-4-7.64,0-2,.58-4.59,3.34-5.45a.88.88,0,0,1,.29,0,6.48,6.48,0,0,1,1.59.35A8.25,8.25,0,0,0,12,9a11.14,11.14,0,0,0,2.61-.44,5.14,5.14,0,0,1,2.5-.29,3.89,3.89,0,0,1,1.29.8A5,5,0,0,0,16.45,13a5.17,5.17,0,0,0,2.62,4.43A8.13,8.13,0,0,1,15.57,21.3Z"/><path class="cls-1" d="M15.79,4.63A5.58,5.58,0,0,0,16.92.69a4.9,4.9,0,0,0-4,1.54,5.64,5.64,0,0,0-1.08,4.2A6.15,6.15,0,0,0,15.79,4.63Z"/></g></svg>