<svg xmlns="http://www.w3.org/2000/svg" viewBox="0 0 24 24"><defs><style>.cls-1{fill:#1d1d1d;}</style></defs><g id="Layer_16" data-name="Layer 16"><path class="cls-1" d="M20.15,3.85c-1.95-1.95-4.89-2.18-6.56-.51L9.9,7a1,1,0,0,0,0,1.42l1.63,1.63,1.41-1.42L12,7.74l3-3c.88-.89,2.56-.66,3.73.51s1.4,2.85.51,3.73l-3,3-.71-.71-1.41,1.41,1.41,1.42a1,1,0,0,0,1.42,0l3.69-3.69C22.33,8.74,22.1,5.8,20.15,3.85Z"/><path class="cls-1" d="M14.1,15.55l-1.42-1.41-1.41,1.41.71.71-3,3c-.88.89-2.56.66-3.73-.51S3.86,15.89,4.75,15l3-3,.92.92,1.42-1.41L8.45,9.9A1,1,0,0,0,7,9.9L3.34,13.59c-1.67,1.67-1.44,4.61.51,6.56s4.89,2.18,6.56.51L14.1,17A1,1,0,0,0,14.1,15.55Z"/><rect class="cls-1" x="11" y="6" width="2" height="12" rx="1" transform="translate(12 -4.97) rotate(45)"/></g></svg>