<svg xmlns="http://www.w3.org/2000/svg" viewBox="0 0 24 24"><defs><style>.cls-1{fill:#1d1d1d;}</style></defs><g id="Layer_16" data-name="Layer 16"><path class="cls-1" d="M19.23,3.27A9.94,9.94,0,0,0,12,.58,9.94,9.94,0,0,0,4.75,3.26C2.92,5.1,2,7.74,2,11.1c0,7.17,9.14,12.07,9.53,12.28l.47.24.46-.24C12.85,23.17,22,18.3,22,11.1,22,7.76,21.08,5.12,19.23,3.27ZM12,21.34c-1.77-1.05-8-5.11-8-10.25,0-2.8.72-5,2.17-6.42A8,8,0,0,1,12,2.58a8,8,0,0,1,5.81,2.1A8.7,8.7,0,0,1,20,11.09C20,16.26,13.77,20.29,12,21.34Z"/><path class="cls-1" d="M12,4.23a5.5,5.5,0,1,0,5.5,5.5A5.51,5.51,0,0,0,12,4.23Zm0,9a3.5,3.5,0,1,1,3.5-3.5A3.5,3.5,0,0,1,12,13.23Z"/></g></svg>