<svg xmlns="http://www.w3.org/2000/svg" viewBox="0 0 24 24"><defs><style>.cls-1{fill:#1d1d1d;}</style></defs><g id="Layer_16" data-name="Layer 16"><path class="cls-1" d="M22.36,3.18l-.16,0-5,1.26-.15,0a.58.58,0,0,1-.19,0L12.18,3.06a.55.55,0,0,0-.36,0L7.17,4.45a.58.58,0,0,1-.19,0l-.15,0L1.8,3.2l-.16,0A.64.64,0,0,0,1,3.82V20.5a.64.64,0,0,0,.49.62l5.34,1.34.15,0a.58.58,0,0,0,.19,0l4.65-1.39a.56.56,0,0,1,.36,0l4.65,1.39a.58.58,0,0,0,.19,0l.15,0,5.34-1.34A.64.64,0,0,0,23,20.5V3.82A.64.64,0,0,0,22.36,3.18ZM16.23,9.69a4.3,4.3,0,0,0-2.12-.22,7.91,7.91,0,0,0-1.22.26V5.15l3.34,1Zm-5.14,1A7.32,7.32,0,0,0,8.94,14.5c-.12.4-.24.81-.39,1.19a1,1,0,0,1-.65.53V6.11l3.19-1ZM7.9,18.08a2.81,2.81,0,0,0,2.33-1.75c.17-.42.3-.86.44-1.3s.27-.89.42-1.28v5.64l-3.19,1Zm5-6.41a4.86,4.86,0,0,1,1.46-.42,2.54,2.54,0,0,1,1.88.44v8.7l-3.34-1ZM2.8,5.31l3.3.82V16.32a11.13,11.13,0,0,1-2-.4.9.9,0,1,0-.56,1.71,12.49,12.49,0,0,0,2.53.51v2.28l-3.3-.83ZM21.2,19.59l-3.16.8V14.48c.16.51.24.89.25.94a.9.9,0,0,0,1.77-.34,9,9,0,0,0-2-4.16V6.1l3.16-.79Z"/></g></svg>