<svg xmlns="http://www.w3.org/2000/svg" viewBox="0 0 180 180"><defs><style>.cls-1{fill:#565656;}.cls-2{fill:none;}</style></defs><g id="Layer_2" data-name="Layer 2"><g id="Nav_Icons" data-name="Nav Icons"><g id="Analytics"><path class="cls-1" d="M132.14,126h-79V99.5L65,87.66,92.33,115l42.38-42.37a3,3,0,0,0,0-4.25L133.29,67a3,3,0,0,0-4.24,0L92.33,103.68,65,76.34,53.16,88.19V48.73a3,3,0,0,0-3-3h-2.3a3,3,0,0,0-3,3v82.54a3,3,0,0,0,3,3h84.28a3,3,0,0,0,3-3V129A3,3,0,0,0,132.14,126Z"/><path class="cls-1" d="M132.14,126h-79V99.5L65,87.66,92.33,115l42.38-42.37a3,3,0,0,0,0-4.25L133.29,67a3,3,0,0,0-4.24,0L92.33,103.68,65,76.34,53.16,88.19V48.73a3,3,0,0,0-3-3h-2.3a3,3,0,0,0-3,3v82.54a3,3,0,0,0,3,3h84.28a3,3,0,0,0,3-3V129A3,3,0,0,0,132.14,126Z"/></g><path class="cls-2" d="M90,180a90,90,0,1,1,90-90A90.1,90.1,0,0,1,90,180ZM90,5.39A84.61,84.61,0,1,0,174.61,90,84.71,84.71,0,0,0,90,5.39Z"/></g></g></svg>