<svg xmlns="http://www.w3.org/2000/svg" viewBox="0 0 180 180"><defs><style>.cls-1{fill:#0280ff;}.cls-2{fill:#fff;fill-rule:evenodd;}</style></defs><g id="Layer_2" data-name="Layer 2"><g id="Nav_Icons" data-name="Nav Icons"><g id="Mapping"><path class="cls-1" d="M90,180a90,90,0,1,1,90-90A90.1,90.1,0,0,1,90,180ZM90,5.39A84.61,84.61,0,1,0,174.61,90,84.71,84.71,0,0,0,90,5.39Z"/><path class="cls-2" d="M90,41.64c-19.13,0-34.65,15.24-34.65,32.82,0,22.74,28.62,56.11,33.84,63.48a1,1,0,0,0,1.62,0c5.22-7.37,33.84-40.08,33.84-63.48C124.65,56.88,109.13,41.64,90,41.64Zm0,48.72a15.5,15.5,0,1,1,15.5-15.5A15.5,15.5,0,0,1,90,90.36Z"/></g></g></g></svg>