<svg xmlns="http://www.w3.org/2000/svg" viewBox="0 0 179.82 179.82"><defs><style>.cls-1{fill:#0280ff;}.cls-2{fill:#fff;}</style></defs><g id="Layer_2" data-name="Layer 2"><g id="Nav_Icons" data-name="Nav Icons"><g id="Knowledge_Graph" data-name="Knowledge Graph"><path class="cls-1" d="M89.91,179.82a89.91,89.91,0,1,1,89.91-89.91A90,90,0,0,1,89.91,179.82Zm0-174.44a84.53,84.53,0,1,0,84.53,84.53A84.63,84.63,0,0,0,89.91,5.38Z"/><path class="cls-2" d="M139,117.3a12,12,0,0,0-17,0c-.23.23-.44.48-.65.73l-15-11.13A19,19,0,0,0,90.28,78.28L88.65,60.73A9.34,9.34,0,0,0,93,58.27a9.51,9.51,0,1,0-8.31,2.64l1.64,17.73A19,19,0,0,0,73.2,106.09L58.35,116a8,8,0,1,0,2.36,3.23l14.72-9.81c.36.44.75.88,1.16,1.29a19,19,0,0,0,26.87,0c.2-.19.36-.4.54-.59l15.35,11.37A12,12,0,1,0,139,117.3Z"/></g></g></g></svg>