<svg xmlns="http://www.w3.org/2000/svg" viewBox="0 0 179.82 179.82"><defs><style>.cls-1{fill:#fff;}.cls-2{fill:#0280ff;}</style></defs><g id="Layer_2" data-name="Layer 2"><g id="Nav_Icons" data-name="Nav Icons"><g id="Content_Management" data-name="Content Management"><path class="cls-1" d="M136.46,106.62h-7.84V90a1,1,0,0,0-1-1H92.79a1,1,0,0,1-1-1V67.2h19.38A2.78,2.78,0,0,0,114,64.43V44.68a2.78,2.78,0,0,0-2.78-2.77H68.65a2.78,2.78,0,0,0-2.78,2.77V64.43a2.78,2.78,0,0,0,2.78,2.77H87.79V88a1,1,0,0,1-1,1H52.29a1,1,0,0,0-1,1v16.58H43.36a2.77,2.77,0,0,0-2.77,2.78v19.74a2.77,2.77,0,0,0,2.77,2.77H63.1a2.77,2.77,0,0,0,2.77-2.77V109.4a2.77,2.77,0,0,0-2.77-2.78H55.29V94a1,1,0,0,1,1-1h30.5a1,1,0,0,1,1,1v12.58H80a2.77,2.77,0,0,0-2.77,2.78v19.74A2.77,2.77,0,0,0,80,131.91H99.78a2.77,2.77,0,0,0,2.77-2.77V109.4a2.77,2.77,0,0,0-2.77-2.78h-8V94a1,1,0,0,1,1-1h30.83a1,1,0,0,1,1,1v12.58h-7.9A2.77,2.77,0,0,0,114,109.4v19.74a2.77,2.77,0,0,0,2.77,2.77h19.74a2.77,2.77,0,0,0,2.77-2.77V109.4A2.77,2.77,0,0,0,136.46,106.62Z"/><path class="cls-2" d="M89.91,179.82a89.91,89.91,0,1,1,89.91-89.91A90,90,0,0,1,89.91,179.82Zm0-174.44a84.53,84.53,0,1,0,84.53,84.53A84.63,84.63,0,0,0,89.91,5.38Z"/></g></g></g></svg>