<svg xmlns="http://www.w3.org/2000/svg" viewBox="0 0 179.82 179.82"><defs><style>.cls-1{fill:#565656;}.cls-2{fill:#0280ff;}.cls-3{fill:#fff;}</style></defs><g id="Layer_2" data-name="Layer 2"><g id="Nav_Icons" data-name="Nav Icons"><g id="Analytics"><path class="cls-1" d="M89.91,179.82a89.91,89.91,0,1,1,89.91-89.91A90,90,0,0,1,89.91,179.82Zm0-174.44a84.53,84.53,0,1,0,84.53,84.53A84.63,84.63,0,0,0,89.91,5.38Z"/><path class="cls-1" d="M132.05,125.89h-79V99.42L64.91,87.57l27.33,27.34,42.38-42.38a3,3,0,0,0,0-4.24l-1.42-1.41a3,3,0,0,0-4.24,0L92.24,103.59,64.91,76.26,53.07,88.1V48.64a3,3,0,0,0-3-3h-2.3a3,3,0,0,0-3,3v82.55a3,3,0,0,0,3,3h84.28a3,3,0,0,0,3-3v-2.3A3,3,0,0,0,132.05,125.89Z"/><path class="cls-2" d="M89.91,179.82a89.91,89.91,0,1,1,89.91-89.91A90,90,0,0,1,89.91,179.82Zm0-174.44a84.53,84.53,0,1,0,84.53,84.53A84.63,84.63,0,0,0,89.91,5.38Z"/><path class="cls-3" d="M132.05,125.89h-79V99.42L64.91,87.57l27.33,27.34,42.38-42.38a3,3,0,0,0,0-4.24l-1.42-1.41a3,3,0,0,0-4.24,0L92.24,103.59,64.91,76.26,53.07,88.1V48.64a3,3,0,0,0-3-3h-2.3a3,3,0,0,0-3,3v82.55a3,3,0,0,0,3,3h84.28a3,3,0,0,0,3-3v-2.3A3,3,0,0,0,132.05,125.89Z"/></g></g></g></svg>