<svg xmlns="http://www.w3.org/2000/svg" viewBox="0 0 179.82 179.82"><defs><style>.cls-1{fill:#0280ff;}.cls-2{fill:#fff;}</style></defs><g id="Layer_2" data-name="Layer 2"><g id="Nav_Icons" data-name="Nav Icons"><g id="App_Builder" data-name="App Builder"><path class="cls-1" d="M89.91,179.82a89.91,89.91,0,1,1,89.91-89.91A90,90,0,0,1,89.91,179.82Zm0-174.44a84.53,84.53,0,1,0,84.53,84.53A84.63,84.63,0,0,0,89.91,5.38Z"/><path class="cls-2" d="M111.91,37.65h-44a6,6,0,0,0-6,6v92.52a6,6,0,0,0,6,6h44a6,6,0,0,0,6-6V43.65A6,6,0,0,0,111.91,37.65Zm1.69,91H66.22V51.14H113.6Z"/><path class="cls-2" d="M109.73,82.39l-6.12,3.31a2.2,2.2,0,0,1-3-.88l-1.71-3.16a2.21,2.21,0,0,1,.89-3l6.12-3.31a.63.63,0,0,0,.06-1.08,10.89,10.89,0,0,0-16.33,13L70.44,105.74a4.2,4.2,0,1,0,5.93,5.94L94.53,92.79a10.9,10.9,0,0,0,16.14-9.86A.64.64,0,0,0,109.73,82.39Z"/></g></g></g></svg>