<svg xmlns="http://www.w3.org/2000/svg" viewBox="0 0 180 180"><defs><style>.cls-1{fill:#565656;}.cls-2{fill:none;}</style></defs><g id="Layer_2" data-name="Layer 2"><g id="Nav_Icons" data-name="Nav Icons"><g id="Advertising"><path class="cls-1" d="M94.13,84.42C86.68,81.54,80.25,79,80.25,73.68c0-4.6,4.56-7.82,11.1-7.82,7.88,0,14.29,5.64,14.39,5.73a2.25,2.25,0,0,0,1.81.48A2.08,2.08,0,0,0,109.18,71l4.36-7.87a2.21,2.21,0,0,0-.35-2.67c-.63-.63-6.41-6.16-16.85-7.48V43.87a2.2,2.2,0,0,0-2.23-2.22H86.82a2.22,2.22,0,0,0-2.23,2.22v9.31C73.17,55.52,65.53,63.8,65.53,73.89c0,14,12.79,19,22.17,22.73,7.14,2.86,13.3,5.32,13.3,10.15,0,5.78-5.45,8.41-10.51,8.41-8.11,0-14.89-5.4-16.78-7.06l-.1-.09a2,2,0,0,0-1.69-.62,2.28,2.28,0,0,0-1.59.84l-5.56,7.29a2.28,2.28,0,0,0,.12,2.84c.07.08,6.86,7.82,19.7,9.78v9a2.23,2.23,0,0,0,2.23,2.23h7.29a2.21,2.21,0,0,0,2.23-2.23v-9c11.58-2.08,19.33-10.88,19.33-22C115.67,92.73,104.25,88.33,94.13,84.42Z"/><path class="cls-2" d="M90,180a90,90,0,1,1,90-90A90.1,90.1,0,0,1,90,180ZM90,5.39A84.61,84.61,0,1,0,174.61,90,84.71,84.71,0,0,0,90,5.39Z"/></g></g></g></svg>