<svg xmlns="http://www.w3.org/2000/svg" viewBox="0 0 180 180"><defs><style>.cls-1{fill:#565656;}.cls-2{fill:none;}</style></defs><g id="Layer_2" data-name="Layer 2"><g id="Nav_Icons" data-name="Nav Icons"><g id="Marketing_Automation" data-name="Marketing Automation"><polygon class="cls-1" points="72.56 90.06 40 114.17 40 65.95 72.56 90.06"/><polygon class="cls-1" points="140 65.98 140 114.18 107.45 90.07 140 65.98"/><path class="cls-1" d="M140,123.8v1.12a1.93,1.93,0,0,1-1.92,1.74H41.91A1.93,1.93,0,0,1,40,125V123.8L79.06,94.88l7.5,5.56A5.74,5.74,0,0,0,90,101.59a5.81,5.81,0,0,0,3.45-1.15L101,94.89Z"/><path class="cls-1" d="M140,55v1.4L101,85.27,97.7,87.68l-3.24,2.39L90,93.37l-4.46-3.3-6.49-4.81L40,56.33V55.27a1.93,1.93,0,0,1,1.93-1.93H138.1A1.92,1.92,0,0,1,140,55Z"/><path class="cls-2" d="M90,180a90,90,0,1,1,90-90A90.1,90.1,0,0,1,90,180ZM90,5.39A84.61,84.61,0,1,0,174.61,90,84.71,84.71,0,0,0,90,5.39Z"/></g></g></g></svg>