<svg xmlns="http://www.w3.org/2000/svg" viewBox="0 0 180 180"><defs><style>.cls-1{fill:#fff;}.cls-2{fill:#0280ff;}</style></defs><g id="Layer_2" data-name="Layer 2"><g id="Nav_Icons" data-name="Nav Icons"><g id="Advertising"><path class="cls-1" d="M94.13,84.25c-7.45-2.88-13.88-5.37-13.88-10.74,0-4.6,4.57-7.81,11.11-7.81,7.87,0,14.28,5.64,14.38,5.73a2.24,2.24,0,0,0,1.81.47,2.06,2.06,0,0,0,1.63-1.12l4.37-7.87a2.21,2.21,0,0,0-.36-2.66c-.63-.64-6.4-6.17-16.85-7.48V43.71a2.21,2.21,0,0,0-2.23-2.23H86.82a2.23,2.23,0,0,0-2.23,2.23V53C73.17,55.36,65.53,63.64,65.53,73.73c0,14,12.79,19,22.18,22.72,7.13,2.86,13.3,5.33,13.3,10.16,0,5.78-5.45,8.41-10.52,8.41-8.11,0-14.89-5.41-16.78-7.07l-.1-.09a2,2,0,0,0-1.69-.62,2.25,2.25,0,0,0-1.59.85l-5.56,7.29a2.27,2.27,0,0,0,.12,2.83c.07.08,6.86,7.82,19.7,9.78v9a2.23,2.23,0,0,0,2.23,2.22h7.29A2.2,2.2,0,0,0,96.34,137v-9c11.58-2.09,19.33-10.89,19.33-22C115.67,92.57,104.25,88.16,94.13,84.25Z"/><path class="cls-2" d="M90,180a90,90,0,1,1,90-90A90.1,90.1,0,0,1,90,180ZM90,5.39A84.61,84.61,0,1,0,174.61,90,84.71,84.71,0,0,0,90,5.39Z"/></g></g></g></svg>