<svg xmlns="http://www.w3.org/2000/svg" viewBox="0 0 180 180"><defs><style>.cls-1{fill:#565656;}.cls-2{fill:none;}</style></defs><g id="Layer_2" data-name="Layer 2"><g id="Nav_Icons" data-name="Nav Icons"><g id="App_Builder" data-name="App Builder"><path class="cls-1" d="M112,37.74H68a6,6,0,0,0-6,6v92.51a6,6,0,0,0,6,6h44a6,6,0,0,0,6-6V43.74A6,6,0,0,0,112,37.74Zm1.69,91H66.31V51.22h47.38Z"/><path class="cls-1" d="M109.82,82.48l-6.12,3.31a2.22,2.22,0,0,1-3-.89L99,81.74a2.22,2.22,0,0,1,.89-3L106,75.45a.62.62,0,0,0,.06-1.07,10.88,10.88,0,0,0-16.33,13L70.53,105.83a4.19,4.19,0,1,0,5.93,5.93L94.62,92.87A10.89,10.89,0,0,0,110.76,83,.63.63,0,0,0,109.82,82.48Z"/><path class="cls-2" d="M90,180a90,90,0,1,1,90-90A90.1,90.1,0,0,1,90,180ZM90,5.39A84.61,84.61,0,1,0,174.61,90,84.71,84.71,0,0,0,90,5.39Z"/></g></g></g></svg>