<svg xmlns="http://www.w3.org/2000/svg" viewBox="0 0 180 180"><defs><style>.cls-1{fill:#565656;}.cls-2{fill:none;}</style></defs><g id="Layer_2" data-name="Layer 2"><g id="Nav_Icons" data-name="Nav Icons"><g id="Content_Management" data-name="Content Management"><path class="cls-1" d="M136.55,106.71h-7.84V90.13a1,1,0,0,0-1-1H92.88a1,1,0,0,1-1-1V67.29h19.38A2.78,2.78,0,0,0,114,64.52V44.77A2.78,2.78,0,0,0,111.26,42H68.74A2.78,2.78,0,0,0,66,44.77V64.52a2.78,2.78,0,0,0,2.78,2.77H87.88V88.13a1,1,0,0,1-1,1H52.38a1,1,0,0,0-1,1v16.58H43.45a2.77,2.77,0,0,0-2.77,2.77v19.75A2.77,2.77,0,0,0,43.45,132H63.19A2.77,2.77,0,0,0,66,129.23V109.48a2.77,2.77,0,0,0-2.77-2.77H55.38V94.13a1,1,0,0,1,1-1h30.5a1,1,0,0,1,1,1v12.58H80.13a2.77,2.77,0,0,0-2.77,2.77v19.75A2.77,2.77,0,0,0,80.13,132H99.87a2.77,2.77,0,0,0,2.77-2.77V109.48a2.77,2.77,0,0,0-2.77-2.77h-8V94.13a1,1,0,0,1,1-1h30.83a1,1,0,0,1,1,1v12.58h-7.9a2.77,2.77,0,0,0-2.77,2.77v19.75a2.77,2.77,0,0,0,2.77,2.77h19.74a2.77,2.77,0,0,0,2.77-2.77V109.48A2.77,2.77,0,0,0,136.55,106.71Z"/><path class="cls-2" d="M90,180a90,90,0,1,1,90-90A90.1,90.1,0,0,1,90,180ZM90,5.39A84.61,84.61,0,1,0,174.61,90,84.71,84.71,0,0,0,90,5.39Z"/></g></g></g></svg>