<svg xmlns="http://www.w3.org/2000/svg" viewBox="0 0 179.82 179.82"><defs><style>.cls-1{fill:#0280ff;}.cls-2{fill:#fff;}</style></defs><g id="Layer_2" data-name="Layer 2"><g id="Nav_Icons" data-name="Nav Icons"><g id="Marketing_Automation" data-name="Marketing Automation"><path class="cls-1" d="M89.91,179.82a89.91,89.91,0,1,1,89.91-89.91A90,90,0,0,1,89.91,179.82Zm0-174.44a84.53,84.53,0,1,0,84.53,84.53A84.63,84.63,0,0,0,89.91,5.38Z"/><polygon class="cls-2" points="72.47 89.98 39.91 114.09 39.91 65.87 72.47 89.98"/><polygon class="cls-2" points="139.91 65.9 139.91 114.1 107.36 89.99 139.91 65.9"/><path class="cls-2" d="M139.91,123.72v1.12a1.93,1.93,0,0,1-1.92,1.74H41.82a1.93,1.93,0,0,1-1.91-1.67v-1.19L79,94.79l7.5,5.56a5.68,5.68,0,0,0,3.45,1.15,5.74,5.74,0,0,0,3.45-1.15l7.49-5.55Z"/><path class="cls-2" d="M139.91,54.87v1.4l-39,28.91-3.25,2.41L94.37,90l-4.45,3.3L85.46,90,79,85.17,39.91,56.25V55.19a1.93,1.93,0,0,1,1.93-1.94H138A1.93,1.93,0,0,1,139.91,54.87Z"/></g></g></g></svg>