<svg xmlns="http://www.w3.org/2000/svg" viewBox="0 0 24 24"><defs><style>.cls-1{fill:#1d1d1d;}</style></defs><g id="Layer_16" data-name="Layer 16"><path class="cls-1" d="M23,15.43a.91.91,0,0,0-1.28,0l-1.17,1.18v-11a1,1,0,0,0-1-1H10.13a1,1,0,0,0-1,1V18.37H4.38V10.74a1,1,0,0,0-2,0v8.63a1,1,0,0,0,1,1h6.75a1,1,0,0,0,1-1V6.58h7.39V16.66l-1.25-1.25a.9.9,0,0,0-1.27,0,.91.91,0,0,0,0,1.28l3.49,3.49L23,16.71A.91.91,0,0,0,23,15.43Z"/><path class="cls-1" d="M6,6.24A2.62,2.62,0,1,0,3.38,8.86,2.61,2.61,0,0,0,6,6.24Zm-3.73,0A1.12,1.12,0,1,1,3.38,7.36,1.11,1.11,0,0,1,2.27,6.24Z"/></g></svg>