<svg xmlns="http://www.w3.org/2000/svg" viewBox="0 0 24 24"><defs><style>.cls-1{fill:#1d1d1d;}</style></defs><g id="Layer_16" data-name="Layer 16"><path class="cls-1" d="M22.87,12.87a1,1,0,0,0,0-2H20.92a8.21,8.21,0,0,0-.31-1.49l1.82-.75a1,1,0,0,0-.77-1.85l-1.84.77A8.78,8.78,0,0,0,19,6.31l1.42-1.42a1,1,0,0,0,0-1.42,1,1,0,0,0-1.41,0L17.54,4.92a8.65,8.65,0,0,0-1.24-.83l.78-1.88A1,1,0,0,0,16.54.9a1,1,0,0,0-1.3.54l-.79,1.91A7.76,7.76,0,0,0,13,3.06V1a1,1,0,0,0-2,0V3.06a7.76,7.76,0,0,0-1.45.29l-.79-1.9a1,1,0,1,0-1.84.76L7.7,4.09a8.65,8.65,0,0,0-1.24.83L5,3.48A1,1,0,0,0,3.61,4.89L5,6.31a8.78,8.78,0,0,0-.85,1.24L2.34,6.79a1,1,0,0,0-.76,1.85l1.81.75a8.11,8.11,0,0,0-.31,1.48H1.13a1,1,0,1,0,0,2H3a8.4,8.4,0,0,0,.29,1.51l-1.75.73A1,1,0,0,0,2.34,17l1.72-.72a8.87,8.87,0,0,0,.86,1.3L3.61,18.85a1,1,0,0,0,0,1.41,1,1,0,0,0,1.42,0L6.32,19a9,9,0,0,0,1.3.88l-.7,1.67a1,1,0,1,0,1.85.76l.69-1.66h0l.08,0,.14,0a9,9,0,0,0,1.3.24v1.8a1,1,0,0,0,2,0v-1.8a9.77,9.77,0,0,0,1.54-.31l.69,1.66a1,1,0,0,0,1.85-.76l-.7-1.68a9,9,0,0,0,1.3-.88L19,20.26a1,1,0,0,0,1.42,0,1,1,0,0,0,0-1.41l-1.31-1.32a8.71,8.71,0,0,0,.85-1.29l1.72.71a1,1,0,0,0,.77-1.85l-1.76-.72A8.57,8.57,0,0,0,21,12.87ZM18.62,9.74l-6.47,1.12L7.8,6.41A7,7,0,0,1,18.62,9.74ZM5,12A6.93,6.93,0,0,1,6.42,7.79l4.34,4.43-1.6,6.17A7,7,0,0,1,5,12Zm7,7a6.24,6.24,0,0,1-1-.08l1.6-6.17L19,11.66c0,.11,0,.22,0,.34A7,7,0,0,1,12,19Z"/></g></svg>