<svg xmlns="http://www.w3.org/2000/svg" viewBox="0 0 24 24"><defs><style>.cls-1{fill:#0080ff;fill-rule:evenodd;}.cls-2{fill:none;stroke:#fefefe;stroke-linecap:round;stroke-miterlimit:10;stroke-width:1.4px;}.cls-3{fill:#fefefe;}</style></defs><g id="Layer_16" data-name="Layer 16"><g id="Icons"><g id="Action-Icons"><g id="filters"><g id="icon_route_elevatordown" data-name="icon route elevatordown"><g id="poi"><path id="base" class="cls-1" d="M24,12A12,12,0,1,0,12,24,12,12,0,0,0,24,12"/><g id="action"><polyline id="Fill-2" class="cls-2" points="10.16 19.84 12.27 21.82 14.35 19.86"/><path id="Fill-3" class="cls-3" d="M17.74,15.83a1.35,1.35,0,0,1-1.41,1.35H8.22a1.39,1.39,0,0,1-1.43-1.35v-7A1.37,1.37,0,0,1,8.22,7.46h8.1a1.39,1.39,0,0,1,1.42,1.36ZM16.32,6.38H8.22A2.47,2.47,0,0,0,5.65,8.82v7a2.51,2.51,0,0,0,2.57,2.44h8.11a2.47,2.47,0,0,0,2.55-2.44v-7a2.5,2.5,0,0,0-2.56-2.44Z"/><path id="Fill-5" class="cls-3" d="M9.24,10.19a.53.53,0,1,0-.56-.53.55.55,0,0,0,.56.53"/><path id="Fill-7" class="cls-3" d="M8.65,10.31a.69.69,0,0,0-.71.68v1.63a.25.25,0,0,0,.49,0V11.13h.11v4.08a.33.33,0,0,0,.65,0V12.84H9.3v2.37a.33.33,0,0,0,.65,0V11.13h.11v1.49a.24.24,0,0,0,.48,0V11a.7.7,0,0,0-.72-.69H8.65"/><path id="Fill-9" class="cls-3" d="M15.29,10.19a.53.53,0,1,0,0-1.06.53.53,0,1,0,0,1.06"/><path id="Fill-11" class="cls-3" d="M14.7,10.31A.69.69,0,0,0,14,11v1.63a.24.24,0,0,0,.48,0V11.13h.12v4.08a.33.33,0,0,0,.65,0V12.84h.11v2.37a.33.33,0,0,0,.65,0V11.13h.11v1.49a.24.24,0,0,0,.48,0V11a.7.7,0,0,0-.72-.69H14.7"/><path id="Fill-13" class="cls-3" d="M12.27,10.17a.52.52,0,1,0,0-1,.52.52,0,1,0,0,1"/><path id="Fill-15" class="cls-3" d="M12.19,13.47v1.8a.26.26,0,0,1-.52,0V13.48H11L11.72,11h-.11l-.43,1.38a.23.23,0,1,1-.44-.15l.48-1.49a.72.72,0,0,1,.67-.48h.75a.73.73,0,0,1,.67.48l.48,1.49a.23.23,0,1,1-.44.14L12.92,11H12.8l.74,2.44h-.69v1.79a.26.26,0,0,1-.51,0v-1.8Z"/></g></g></g></g></g></g></g></svg>