<svg xmlns="http://www.w3.org/2000/svg" viewBox="0 0 24 24"><defs><style>.cls-1{fill:#0080ff;fill-rule:evenodd;}.cls-2{fill:#fff;}</style></defs><g id="Layer_16" data-name="Layer 16"><g id="Icons"><g id="Action-Icons"><g id="filters"><g id="icon_route_escalatordown" data-name="icon route escalatordown"><path id="base" class="cls-1" d="M24,12A12,12,0,1,0,12,24,12,12,0,0,0,24,12"/><path id="Fill-4" class="cls-2" d="M11.25,9.22A1.56,1.56,0,0,1,12.06,9a1.35,1.35,0,0,1,1.44,1.25V12Z"/><path id="Fill-1" class="cls-2" d="M12,7.5a.75.75,0,1,0,.75-.75A.76.76,0,0,0,12,7.5"/><path id="Fill-6" class="cls-2" d="M16,18.75h2.89a.62.62,0,0,0,0-1.24H16.32L9,7a.61.61,0,0,0-.5-.26H5.86A.62.62,0,0,0,5.86,8H8.21l7.29,10.5a.64.64,0,0,0,.5.26"/><path id="Fill-9" class="cls-2" d="M15,10.5a.75.75,0,1,0,.75-.75.76.76,0,0,0-.75.75"/><path id="Fill-11" class="cls-2" d="M14.25,12.94A1.19,1.19,0,0,1,15.36,12a1.21,1.21,0,0,1,1.14,1.28V16.5Z"/></g></g></g></g></g></svg>