<svg xmlns="http://www.w3.org/2000/svg" viewBox="0 0 24 24"><defs><style>.cls-1{fill:#0080ff;}.cls-2{fill:#fff;}</style></defs><g id="Layer_16" data-name="Layer 16"><g id="Icons"><g id="Action-Icons"><g id="filters"><g id="icon_route_straight" data-name="icon route straight"><path id="base" class="cls-1" d="M24,12A12,12,0,1,0,12,24,12,12,0,0,0,24,12"/><path class="cls-2" d="M12.69,17.33h0l0-8.77,2.69,2.65a.68.68,0,0,0,1,0,.65.65,0,0,0,0-.94L12,6,7.7,10.23a.65.65,0,0,0,0,.94.68.68,0,0,0,1,0l2.66-2.63,0,8.8a.68.68,0,0,0,1.35,0Z"/></g></g></g></g></g></svg>