<svg xmlns="http://www.w3.org/2000/svg" viewBox="0 0 24 24"><defs><style>.cls-1{fill:#0080ff;}.cls-2{fill:#fff;}</style></defs><g id="Layer_16" data-name="Layer 16"><g id="Icons"><g id="Action-Icons"><g id="filters"><g id="icon_route_stairsdown" data-name="icon route stairsdown"><path id="base" class="cls-1" d="M12,0A12,12,0,1,0,24,12,12,12,0,0,0,12,0Z"/><path id="stairs" class="cls-2" d="M15,4.5v3H12v3H9v3H6v3H4.5a.75.75,0,0,0-.75.75h0A.76.76,0,0,0,4.5,18h3V15.06h3V12h3V9h3V6H18a.75.75,0,0,0,.75-.75h0A.75.75,0,0,0,18,4.5Z"/><path class="cls-2" d="M15.62,15.36,18.25,18l2.63-2.64a.74.74,0,0,0,0-1.06.77.77,0,0,0-.53-.22.79.79,0,0,0-.53.22l-.82.82V9.69a.75.75,0,1,0-1.5,0v5.43l-.82-.82a.75.75,0,1,0-1.06,1.06Z"/></g></g></g></g></g></svg>