<svg xmlns="http://www.w3.org/2000/svg" viewBox="0 0 24 24"><defs><style>.cls-1{fill:#0080ff;}.cls-2{fill:#fff;}</style></defs><g id="Layer_16" data-name="Layer 16"><g id="Icons"><g id="Action-Icons"><g id="filters"><g id="icon_route_escalatorup" data-name="icon route escalatorup"><path id="base" class="cls-1" d="M24,12A12,12,0,1,0,12,24,12,12,0,0,0,24,12"/><path id="Fill-4" class="cls-2" d="M15,7a1.56,1.56,0,0,0-.81-.22A1.36,1.36,0,0,0,12.75,8V9.75Z"/><path id="Fill-1" class="cls-2" d="M15,5.25a.75.75,0,1,1-.75-.75.75.75,0,0,1,.75.75"/><path id="Fill-6" class="cls-2" d="M8.75,18.75H5.86a.62.62,0,0,1,0-1.24H8.43L15.72,7a.61.61,0,0,1,.5-.26h2.67a.62.62,0,0,1,0,1.24H16.54L9.25,18.49a.61.61,0,0,1-.5.26"/><path id="Fill-9" class="cls-2" d="M12,8.25a.75.75,0,1,1-.75-.75.75.75,0,0,1,.75.75"/><path id="Fill-11" class="cls-2" d="M12,10.69a1.18,1.18,0,0,0-1.1-.94A1.22,1.22,0,0,0,9.75,11v3.22Z"/></g></g></g></g></g></svg>