<?xml version="1.0" encoding="UTF-8"?>
<svg width="496px" height="120px" viewBox="0 0 496 120" version="1.1" xmlns="http://www.w3.org/2000/svg" xmlns:xlink="http://www.w3.org/1999/xlink">
    <!-- Generator: Sketch 55.2 (78181) - https://sketchapp.com -->
    <title>pricing_connection </title>
    <desc>Created with Sketch.</desc>
    <g id="Assets" stroke="none" stroke-width="1" fill="none" fill-rule="evenodd">
        <g id="other-assets" transform="translate(-81.000000, -182.000000)" fill="#D8ECFF" fill-rule="nonzero">
            <path d="M540.018416,269.679466 C520.633559,253.009752 496.064895,236.344357 466.729155,222.187162 C423.992477,201.562782 377.005121,189.298836 326.215164,188.20775 C275.41578,187.116462 228.42824,198.096252 185.695464,218.168182 C156.258994,231.994731 131.633645,248.719628 112.243905,265.657786 C116.559745,272.570265 115.590244,281.863756 109.527473,287.669371 C102.690056,294.216773 91.9638687,293.848695 85.5698617,286.847246 C79.1758547,279.845797 79.5353088,268.862283 86.372725,262.31488 C92.4926674,256.454519 101.728076,256.134455 108.183893,261.152393 C127.99789,243.814179 153.138325,226.720896 183.201211,212.600116 C226.721652,192.158212 274.594445,180.971561 326.340641,182.083189 C378.011524,183.1932 425.814893,195.670129 469.279527,216.645816 C499.215596,231.092724 524.279187,248.113785 544.07013,265.164313 L551.044773,257.391922 C552.452322,255.82338 554.83513,255.720244 556.366923,257.161561 L575.781823,275.429703 C577.313617,276.871019 577.414337,279.310991 576.006788,280.879533 L558.16664,300.760207 C556.759091,302.328748 554.376283,302.431885 552.84449,300.990568 L533.42959,282.722426 C531.897797,281.28111 531.797076,278.841137 533.204625,277.272595 L540.018411,269.679461 L540.018416,269.679466 Z M105.609197,266.953081 C101.439374,262.781028 94.7600029,262.670492 90.4588569,266.789202 C86.0346465,271.025757 85.8020585,278.132737 89.9393571,282.663086 C94.0766558,287.193435 101.01713,287.431603 105.441341,283.195049 C109.742199,279.076615 110.081911,272.245585 106.296712,267.705991 C106.137489,267.581865 105.988118,267.439433 105.85149,267.278898 C105.762592,267.174445 105.681846,267.065568 105.609197,266.953081 L105.609197,266.953081 Z" id="pricing_connection-"></path>
        </g>
    </g>
</svg>