<?xml version="1.0" encoding="UTF-8"?>
<svg width="468px" height="468px" viewBox="0 0 468 468" version="1.1" xmlns="http://www.w3.org/2000/svg" xmlns:xlink="http://www.w3.org/1999/xlink">
    <!-- Generator: Sketch 55.2 (78181) - https://sketchapp.com -->
    <title>pw-mark-solid</title>
    <desc>Created with Sketch.</desc>
    <g id="Page-1" stroke="none" stroke-width="1" fill="none" fill-rule="evenodd">
        <g id="pw-mark-solid" fill="#1D1D1D" fill-rule="nonzero">
            <path d="M234,468 C105,468 0,363 0,234 C0,105 105,0 234,0 C363,0 468,105 468,234 C468,363 363,468 234,468 Z M234,24.3 C118.4,24.3 24.3,118.4 24.3,234 C24.3,349.6 118.4,443.6 234,443.6 C349.6,443.6 443.7,349.6 443.7,234 C443.7,118.4 349.6,24.3 234,24.3 Z" id="Shape"></path>
            <path d="M296.5,231.8 C290.5,231.8 285.9,236.5 285.9,242.5 L285.9,309 L244.9,266.8 C240.7,262.5 238.5,261.2 234.3,261.2 C230,261.2 227.9,262.5 223.6,266.8 L181.7,309 L181.7,242.5 C181.7,242.4 181.7,242.3 181.7,242.2 L181.7,215.7 L261.2,215.7 C286.8,215.7 307.7,194.8 307.7,169.2 C307.7,143.6 286.8,122.7 261.2,122.7 L171,122.7 C165,122.7 160.3,127.4 160.3,133.4 L160.3,242.5 L160.3,258 L160.3,334.6 C160.3,340.6 165,345.3 171,345.3 C175.3,345.3 177.4,344 181.6,339.8 L233.7,286.8 L285.8,339.8 C290.1,344 292.2,345.3 296.4,345.3 C302.4,345.3 307.1,340.6 307.1,334.6 L307.1,242.5 C307.2,236.5 302.5,231.8 296.5,231.8 Z M181.7,143.2 L261.2,143.2 C276.2,143.2 286.4,155.6 286.4,169.2 C286.4,182.8 276.2,195.2 261.2,195.2 L181.7,195.2 L181.7,143.2 Z" id="Shape"></path>
        </g>
    </g>
</svg>