<?xml version="1.0" encoding="utf-8"?>
<!-- Generator: Adobe Illustrator 21.1.0, SVG Export Plug-In . SVG Version: 6.00 Build 0)  -->
<svg version="1.1" id="Layer_1" xmlns="http://www.w3.org/2000/svg" xmlns:xlink="http://www.w3.org/1999/xlink" x="0px" y="0px"
	 viewBox="0 0 600 600" style="enable-background:new 0 0 600 600;" xml:space="preserve">
<style type="text/css">
	.st0{fill:#0080FF;}
	.st1{fill:#231F20;}
</style>
<g>
	<path class="st0" d="M300,534C171,534,66,429,66,300C66,171,171,66,300,66c129,0,234,105,234,234C534,429,429,534,300,534z
		 M300,90.3C184.4,90.3,90.3,184.4,90.3,300c0,115.6,94.1,209.6,209.7,209.6c115.6,0,209.7-94,209.7-209.6
		C509.7,184.4,415.6,90.3,300,90.3z"/>
</g>
<g>
	<g>
		<path class="st1" d="M362.5,297.8c-6,0-10.6,4.7-10.6,10.7V375l-41-42.2c-4.2-4.3-6.4-5.6-10.6-5.6c-4.3,0-6.4,1.3-10.7,5.6
			L247.7,375v-66.5c0-0.1,0-0.2,0-0.3v-26.5h79.5c25.6,0,46.5-20.9,46.5-46.5c0-25.6-20.9-46.5-46.5-46.5H237
			c-6,0-10.7,4.7-10.7,10.7v109.1v15.5v76.6c0,6,4.7,10.7,10.7,10.7c4.3,0,6.4-1.3,10.6-5.5l52.1-53l52.1,53
			c4.3,4.2,6.4,5.5,10.6,5.5c6,0,10.7-4.7,10.7-10.7v-92.1C373.2,302.5,368.5,297.8,362.5,297.8z M247.7,209.2h79.5
			c15,0,25.2,12.4,25.2,26c0,13.6-10.2,26-25.2,26h-79.5V209.2z"/>
	</g>
</g>
</svg>
