<svg xmlns="http://www.w3.org/2000/svg" viewBox="0 0 24 24"><defs><style>.cls-1{fill:#1d1d1d;}</style></defs><g id="Layer_16" data-name="Layer 16"><path class="cls-1" d="M12.07,24a12,12,0,1,1,12-12A12,12,0,0,1,12.07,24Zm0-22.75A10.75,10.75,0,1,0,22.83,12,10.76,10.76,0,0,0,12.07,1.25Z"/><path class="cls-1" d="M15.28,11.89a.54.54,0,0,0-.55.55v3.41l-2.1-2.17c-.21-.22-.33-.29-.54-.29s-.33.07-.55.29L9.39,15.85V11.06h4.08a2.39,2.39,0,0,0,0-4.77H8.84a.54.54,0,0,0-.55.55V17.16a.54.54,0,0,0,.55.55c.22,0,.33-.07.55-.28l2.67-2.72,2.67,2.72c.22.21.33.28.54.28a.54.54,0,0,0,.55-.55V12.44A.53.53,0,0,0,15.28,11.89ZM9.39,7.34h4.08a1.34,1.34,0,0,1,0,2.67H9.39V7.34Z"/></g></svg>