<svg xmlns="http://www.w3.org/2000/svg" viewBox="0 0 24 24"><defs><style>.cls-1{fill:#0080ff;}.cls-2{fill:#231f20;}</style></defs><g id="Layer_16" data-name="Layer 16"><path class="cls-1" d="M12,24A12,12,0,1,1,24,12,12,12,0,0,1,12,24ZM12,1.25A10.75,10.75,0,1,0,22.75,12,10.76,10.76,0,0,0,12,1.25Z"/><path class="cls-2" d="M15.21,11.89a.54.54,0,0,0-.55.55v3.41l-2.1-2.17c-.22-.22-.33-.29-.54-.29s-.33.07-.55.29L9.32,15.85V11.06h4.07a2.39,2.39,0,1,0,0-4.77H8.77a.54.54,0,0,0-.55.55V17.16a.54.54,0,0,0,.55.55c.22,0,.33-.07.54-.28L12,14.71l2.68,2.72c.22.21.32.28.54.28a.54.54,0,0,0,.55-.55V12.44A.54.54,0,0,0,15.21,11.89ZM9.32,7.34h4.07a1.34,1.34,0,0,1,0,2.67H9.32V7.34Z"/></g></svg>